<svg width="24" height="24" fill="none" viewBox="0 0 24 24" xmlns="http://www.w3.org/2000/svg">
    <path d="M7.47 21.49C4.2 19.93 1.86 16.76 1.5 13H0c.51 6.16 5.66 11 11.95 11 .23 0 .44-.02.66-.03L9.1 21.1l-1.63.39zm.89-6.22l-1.41-1.41L3.26 17.1l1.41 1.41 3.69-3.24zM12.05 1c-.23 0-.44.02-.66.04l3.51 2.86 1.63-.4C19.8 5.07 22.14 8.24 22.5 12H24c-.51-6.16-5.66-11-11.95-11zm3.84 2.44l1.42 1.41 3.69-3.24-1.41-1.41-3.7 3.24zM18 7H6c-1.1 0-2 .9-2 2v9c0 1.1.9 2 2 2h12c1.1 0 2-.9 2-2V9c0-1.1-.9-2-2-2zm0 11H6V9h12v9z"/>
</svg>
